<svg class="svg-icon" style="width: 1em; height: 1em;vertical-align: middle;fill: currentColor;overflow: hidden;" viewBox="0 0 1024 1024" version="1.1" xmlns="http://www.w3.org/2000/svg"><path d="M597.333333 810.666667h213.333334V213.333333H213.333333v597.333334h298.666667v-213.333334h-85.333333v-85.333333h85.333333v-70.570667c0-57.045333 5.973333-77.738667 17.066667-98.602666A116.309333 116.309333 0 0 1 577.536 294.4c16.298667-8.746667 36.565333-13.994667 71.978667-16.256 14.037333-0.896 32.213333 0.213333 54.528 3.413333v81.066667H682.666667c-39.125333 0-55.296 1.834667-64.938667 6.997333a31.018667 31.018667 0 0 0-13.397333 13.397334c-5.12 9.642667-6.997333 19.2-6.997334 58.368V512h106.666667l-21.333333 85.333333h-85.333334v213.333334zM170.666667 128h682.666666a42.666667 42.666667 0 0 1 42.666667 42.666667v682.666666a42.666667 42.666667 0 0 1-42.666667 42.666667H170.666667a42.666667 42.666667 0 0 1-42.666667-42.666667V170.666667a42.666667 42.666667 0 0 1 42.666667-42.666667z"  /></svg>