<svg class="svg-icon" style="width: 1em; height: 1em;vertical-align: middle;fill: currentColor;overflow: hidden;" viewBox="0 0 1024 1024" version="1.1" xmlns="http://www.w3.org/2000/svg"><path d="M725.333333 981.333333H298.666667c-140.8 0-256-115.2-256-256V298.666667c0-140.8 115.2-256 256-256h426.666666c140.8 0 256 115.2 256 256v426.666666c0 140.8-115.2 256-256 256zM298.666667 128C204.8 128 128 204.8 128 298.666667v426.666666c0 93.866667 76.8 170.666667 170.666667 170.666667h426.666666c93.866667 0 170.666667-76.8 170.666667-170.666667V298.666667c0-93.866667-76.8-170.666667-170.666667-170.666667H298.666667z"  /><path d="M512 725.333333c-46.933333 0-89.6-12.8-128-42.666666-46.933333-34.133333-76.8-85.333333-85.333333-140.8C285.866667 426.666667 366.933333 315.733333 482.133333 298.666667c21.333333-4.266667 42.666667-4.266667 64 0 93.866667 12.8 166.4 85.333333 179.2 179.2 8.533333 55.466667-4.266667 110.933333-38.4 157.866666s-85.333333 76.8-140.8 85.333334c-12.8 0-21.333333 4.266667-34.133333 4.266666z m0-341.333333h-17.066667c-68.266667 8.533333-119.466667 76.8-106.666666 145.066667 8.533333 68.266667 76.8 119.466667 145.066666 106.666666 34.133333-4.266667 64-21.333333 85.333334-51.2s29.866667-59.733333 25.6-93.866666c-8.533333-55.466667-51.2-98.133333-106.666667-106.666667H512zM746.666667 320c-12.8 0-21.333333-4.266667-29.866667-12.8-4.266667-4.266667-8.533333-8.533333-8.533333-12.8-4.266667-4.266667-4.266667-12.8-4.266667-17.066667 0-12.8 4.266667-21.333333 12.8-29.866666 17.066667-17.066667 42.666667-17.066667 59.733333 0 8.533333 8.533333 12.8 17.066667 12.8 29.866666 0 4.266667 0 12.8-4.266666 17.066667s-4.266667 8.533333-8.533334 12.8c-8.533333 8.533333-17.066667 12.8-29.866666 12.8z"  /></svg>