<svg class="svg-icon" style="width: 1em; height: 1em;vertical-align: middle;fill: currentColor;overflow: hidden;" viewBox="0 0 1024 1024" version="1.1" xmlns="http://www.w3.org/2000/svg"><path d="M513.016143 503.645728c-115.797329 0-210.006991-98.632391-210.006991-219.85529S397.219837 63.961754 513.016143 63.961754c115.809609 0 210.020294 98.605785 210.020294 219.828684S628.826775 503.645728 513.016143 503.645728zM513.016143 90.674139c-101.07093 0-183.294606 86.632079-183.294606 193.116299 0 106.509802 82.223676 193.142905 183.294606 193.142905s183.307909-86.632079 183.307909-193.142905C696.324052 177.307242 614.088096 90.674139 513.016143 90.674139z"  /><path d="M513.016143 942.807816 286.874683 942.807816c-131.957381 0-219.841987-13.642718-219.841987-80.214926 0-140.91745 190.729949-298.504558 445.983447-298.504558 255.266801 0 445.99675 156.543336 445.99675 296.522414 0 65.763796-87.805812 80.423681-219.658815 82.198094L513.016143 942.80884zM513.016143 590.799694c-236.119719 0-419.271062 146.108682-419.271062 271.792173 0 24.912389 21.951965 53.502541 193.129602 53.502541l452.296223 0c170.160471-2.295276 193.129602-29.320793 193.129602-55.485709C932.300508 735.839021 749.149165 590.799694 513.016143 590.799694z"  /><path d="M729.341027 984.377584"  /></svg>