<svg class="svg-icon" style="width: 1em;height: 1em;vertical-align: middle;fill: currentColor;overflow: hidden;" viewBox="0 0 1024 1024" version="1.1" xmlns="http://www.w3.org/2000/svg"><path d="M622 907.8H397c-17.1 0-32.2-10.9-37.6-27.2l-112.2-341c-4-12.2-2-25.2 5.5-35.6 7.5-10.4 19.2-16.4 32.1-16.4h451.9c12.7 0 24.7 6.2 32.1 16.5 7.4 10.3 9.4 23.7 5.4 35.7l-114.7 341c-5.4 16.2-20.5 27-37.5 27zM284.8 517.6c-4.4 0-6.9 2.8-7.8 4-0.9 1.2-2.7 4.4-1.3 8.6l112.2 341c1.3 3.9 5 6.6 9.1 6.6h225c4.1 0 7.8-2.6 9.1-6.5l114.7-341c1.4-4.2-0.4-7.4-1.3-8.6-0.9-1.2-3.3-4-7.8-4H284.8z"  /><path d="M498.3 516.9l-14-5.8c-3.7-1.5-91.7-38.6-124.7-119.4-31.7-77.7-32.3-226.3-32.3-232.5v-32.8l24.8 21.4c5 4.3 122.1 105.8 154.1 184.1 32.9 80.6-0.9 167.2-2.3 170.8l-5.6 14.2z m-140-322.8c2 48.4 8.5 135.8 29.1 186.4 20.7 50.8 69.2 82.4 93.6 95.7 7.3-26.4 18.1-82.1-2.6-132.8-20.5-50.6-84-115.3-120.1-149.3z"  /><path d="M523.1 516.9l-5.6-14.1c-1.5-3.6-35.2-90.3-2.3-170.8 31.9-78.3 149.1-179.9 154.1-184.1l24.8-21.4v32.8c0 6.3-0.6 154.8-32.3 232.5-32.9 80.8-120.9 117.8-124.7 119.4l-14 5.7z m140.1-322.8c-36.1 34.1-99.6 98.7-120.2 149.3-20.7 50.7-9.9 106.4-2.6 132.8 24.5-13.3 72.9-44.9 93.6-95.7 20.7-50.6 27.2-138 29.2-186.4z"  /></svg>