<svg class="svg-icon" style="width: 1em;height: 1em;vertical-align: middle;fill: currentColor;overflow: hidden;" viewBox="0 0 1024 1024" version="1.1" xmlns="http://www.w3.org/2000/svg"><path d="M843.081 305.95l-40.133-40.133-94.357 94.357v-52.166l73.004-73.004-40.133-40.133-32.87 32.87V162h-56.757v65.74l-32.87-32.87-40.133 40.133 73.004 73.004v52.166l-94.357-94.357-40.133 40.133 92.537 92.537H414.119l92.537-92.537-40.133-40.133-94.357 94.357v-52.166l73.004-73.004-40.133-40.133-32.87 32.87V162H315.41v65.74l-32.87-32.87-40.133 40.133 73.004 73.004v52.166l-94.357-94.357-40.133 40.133 92.537 92.537h-92.537v160.811h91.11L303.892 862h416.216l31.863-302.703h91.11V398.486h-92.537l92.537-92.536z m-170.27 499.293H351.189L332.27 559.297h359.46l-18.919 245.946z m113.513-302.702H237.676v-47.297h548.649v47.297z"  /></svg>